<?xml version="1.0" standalone="no"?>
<!DOCTYPE svg PUBLIC "-//W3C//DTD SVG 20001102//EN" "http://www.w3.org/TR/2000/CR-SVG-20001102/DTD/svg-20001102.dtd">
<svg xmlns="http://www.w3.org/2000/svg" width="1549" x="0" y="0" height="1230" id="/data/siegerstein/admin/lang/libsml/Диаграмма классов" >
 <rect width="1549" x="13" y="4" height="1230" transform="translate(-13,-4)" style="stroke:rgb(0,0,0);stroke-width:0;fill:rgb(255,255,255);" />
 <line transform="translate(-13,-4)" style="stroke:rgb(255,0,0);stroke-width:0.9;fill:none;" y1="730" y2="919" x1="144" x2="143" />
 <line transform="translate(-13,-4)" style="stroke:rgb(255,0,0);stroke-width:0.9;fill:none;" y1="548" y2="551" x1="143" x2="891" />
 <line transform="translate(-13,-4)" style="stroke:rgb(255,0,0);stroke-width:0.9;fill:none;" y1="603" y2="548" x1="144" x2="143" />
 <line transform="translate(-13,-4)" style="stroke:rgb(255,0,0);stroke-width:0.9;fill:none;" y1="551" y2="827" x1="891" x2="1228" />
 <line transform="translate(-13,-4)" style="stroke:rgb(255,0,0);stroke-width:0.9;fill:none;" y1="1170" y2="1090" x1="498" x2="1062" />
 <line transform="translate(-13,-4)" style="stroke:rgb(255,0,0);stroke-width:0.9;fill:none;" y1="747" y2="827" x1="495" x2="895" />
 <line transform="translate(-13,-4)" style="stroke:rgb(255,0,0);stroke-width:0.9;fill:none;" y1="1170" y2="1046" x1="344" x2="175" />
 <line transform="translate(-13,-4)" style="stroke:rgb(255,0,0);stroke-width:0.9;fill:none;" y1="888" y2="914" x1="496" x2="562" />
 <line transform="translate(-13,-4)" style="stroke:rgb(255,0,0);stroke-width:0.9;fill:none;" y1="1029" y2="1002" x1="497" x2="562" />
 <line transform="translate(-13,-4)" style="stroke:rgb(255,0,0);stroke-width:0.9;fill:none;" y1="888" y2="961" x1="342" x2="271" />
 <line transform="translate(-13,-4)" style="stroke:rgb(255,0,0);stroke-width:0.9;fill:none;" y1="1029" y2="1003" x1="343" x2="271" />
 <line transform="translate(-13,-4)" style="stroke:rgb(255,0,0);stroke-width:0.9;fill:none;" y1="42" y2="73" x1="966" x2="989" />
 <line transform="translate(-13,-4)" style="stroke:rgb(255,0,0);stroke-width:0.9;fill:none;" y1="858" y2="919" x1="253" x2="207" />
 <line transform="translate(-13,-4)" style="stroke:rgb(255,0,0);stroke-width:0.9;fill:none;" y1="747" y2="858" x1="341" x2="253" />
 <polygon points="271 961 284 957 274 948 271 961" transform="translate(-13,-4)" style="stroke:rgb(0,0,0);stroke-width:0;fill:rgb(255,255,255);" />
 <polygon points="271 1003 279 1013 284 1001 271 1003" transform="translate(-13,-4)" style="stroke:rgb(0,0,0);stroke-width:0;fill:rgb(255,255,255);" />
 <polygon points="175 1046 180 1058 188 1047 175 1046" transform="translate(-13,-4)" style="stroke:rgb(0,0,0);stroke-width:0;fill:rgb(255,255,255);" />
 <polygon points="989 73 988 60 977 68 989 73" transform="translate(-13,-4)" style="stroke:rgb(0,0,0);stroke-width:0;fill:rgb(255,255,255);" />
 <polygon points="207 919 219 914 209 906 207 919" transform="translate(-13,-4)" style="stroke:rgb(0,0,0);stroke-width:0;fill:rgb(255,255,255);" />
 <line transform="translate(-13,-4)" style="stroke:rgb(255,0,0);stroke-width:0.9;fill:none;" y1="919" y2="908" x1="143" x2="137" />
 <line transform="translate(-13,-4)" style="stroke:rgb(255,0,0);stroke-width:0.9;fill:none;" y1="919" y2="908" x1="143" x2="150" />
 <line transform="translate(-13,-4)" style="stroke:rgb(255,0,0);stroke-width:0.9;fill:none;" y1="1090" y2="1085" x1="1062" x2="1050" />
 <line transform="translate(-13,-4)" style="stroke:rgb(255,0,0);stroke-width:0.9;fill:none;" y1="1090" y2="1098" x1="1062" x2="1052" />
 <line transform="translate(-13,-4)" style="stroke:rgb(255,0,0);stroke-width:0.9;fill:none;" y1="827" y2="818" x1="895" x2="885" />
 <line transform="translate(-13,-4)" style="stroke:rgb(255,0,0);stroke-width:0.9;fill:none;" y1="827" y2="831" x1="895" x2="883" />
 <line transform="translate(-13,-4)" style="stroke:rgb(255,0,0);stroke-width:0.9;fill:none;" y1="827" y2="815" x1="1228" x2="1223" />
 <line transform="translate(-13,-4)" style="stroke:rgb(255,0,0);stroke-width:0.9;fill:none;" y1="827" y2="825" x1="1228" x2="1215" />
 <line transform="translate(-13,-4)" style="stroke:rgb(255,0,0);stroke-width:0.9;fill:none;" y1="914" y2="904" x1="562" x2="554" />
 <line transform="translate(-13,-4)" style="stroke:rgb(255,0,0);stroke-width:0.9;fill:none;" y1="914" y2="916" x1="562" x2="549" />
 <line transform="translate(-13,-4)" style="stroke:rgb(255,0,0);stroke-width:0.9;fill:none;" y1="1002" y2="1000" x1="562" x2="549" />
 <line transform="translate(-13,-4)" style="stroke:rgb(255,0,0);stroke-width:0.9;fill:none;" y1="1002" y2="1012" x1="562" x2="554" />
 <line transform="translate(-13,-4)" style="stroke:rgb(255,0,0);stroke-width:0.9;fill:none;" y1="961" y2="957" x1="271" x2="284" />
 <line transform="translate(-13,-4)" style="stroke:rgb(255,0,0);stroke-width:0.9;fill:none;" y1="957" y2="948" x1="284" x2="274" />
 <line transform="translate(-13,-4)" style="stroke:rgb(255,0,0);stroke-width:0.9;fill:none;" y1="961" y2="948" x1="271" x2="274" />
 <line transform="translate(-13,-4)" style="stroke:rgb(255,0,0);stroke-width:0.9;fill:none;" y1="1003" y2="1013" x1="271" x2="279" />
 <line transform="translate(-13,-4)" style="stroke:rgb(255,0,0);stroke-width:0.9;fill:none;" y1="1013" y2="1001" x1="279" x2="284" />
 <line transform="translate(-13,-4)" style="stroke:rgb(255,0,0);stroke-width:0.9;fill:none;" y1="1003" y2="1001" x1="271" x2="284" />
 <line transform="translate(-13,-4)" style="stroke:rgb(255,0,0);stroke-width:0.9;fill:none;" y1="1046" y2="1058" x1="175" x2="180" />
 <line transform="translate(-13,-4)" style="stroke:rgb(255,0,0);stroke-width:0.9;fill:none;" y1="1058" y2="1047" x1="180" x2="188" />
 <line transform="translate(-13,-4)" style="stroke:rgb(255,0,0);stroke-width:0.9;fill:none;" y1="1046" y2="1047" x1="175" x2="188" />
 <line transform="translate(-13,-4)" style="stroke:rgb(255,0,0);stroke-width:0.9;fill:none;" y1="73" y2="60" x1="989" x2="988" />
 <line transform="translate(-13,-4)" style="stroke:rgb(255,0,0);stroke-width:0.9;fill:none;" y1="60" y2="68" x1="988" x2="977" />
 <line transform="translate(-13,-4)" style="stroke:rgb(255,0,0);stroke-width:0.9;fill:none;" y1="73" y2="68" x1="989" x2="977" />
 <line transform="translate(-13,-4)" style="stroke:rgb(255,0,0);stroke-width:0.9;fill:none;" y1="919" y2="914" x1="207" x2="219" />
 <line transform="translate(-13,-4)" style="stroke:rgb(255,0,0);stroke-width:0.9;fill:none;" y1="914" y2="906" x1="219" x2="209" />
 <line transform="translate(-13,-4)" style="stroke:rgb(255,0,0);stroke-width:0.9;fill:none;" y1="919" y2="906" x1="207" x2="209" />
 <rect width="407" x="561" y="116" height="76" transform="translate(-13,-4)" style="stroke:rgb(255,0,0);stroke-width:0.9;fill:rgb(255,255,192);" />
 <text x="764" y="131" transform="translate(-13,-4)" style="fill:rgb(0,0,0);stroke-width:0;font-size:9;font-style:normal;font-weight:700;font-family:Sans Serif;" text-anchor="middle" >DSP</text>
 <line transform="translate(-13,-4)" style="stroke:rgb(255,0,0);stroke-width:0.9;fill:rgb(255,255,192);" y1="133" y2="133" x1="561" x2="967" />
 <line transform="translate(-13,-4)" style="stroke:rgb(255,0,0);stroke-width:0.9;fill:rgb(255,255,192);" y1="141" y2="141" x1="561" x2="967" />
 <text x="566" y="156" transform="translate(-13,-4)" style="fill:rgb(0,0,0);stroke-width:0;font-size:9;font-style:normal;font-weight:400;font-family:Sans Serif;" >+ init(dev : string = /dev/dsp) : bool</text>
 <text x="566" y="173" transform="translate(-13,-4)" style="fill:rgb(0,0,0);stroke-width:0;font-size:9;font-style:normal;font-weight:400;font-family:Sans Serif;" >+ setParams(channels : int = 2, sampleRate : int = 44100) : bool</text>
 <text x="566" y="190" transform="translate(-13,-4)" style="fill:rgb(0,0,0);stroke-width:0;font-size:9;font-style:normal;font-weight:400;font-family:Sans Serif;" >+ play(buf : const void *) : bool</text>
 <rect width="191" x="80" y="919" height="127" transform="translate(-13,-4)" style="stroke:rgb(255,0,0);stroke-width:0.9;fill:rgb(255,255,192);" />
 <text x="175" y="934" transform="translate(-13,-4)" style="fill:rgb(0,0,0);stroke-width:0;font-size:9;font-style:italic;font-weight:700;font-family:Sans Serif;" text-anchor="middle" >AbstractCodec</text>
 <line transform="translate(-13,-4)" style="stroke:rgb(255,0,0);stroke-width:0.9;fill:rgb(255,255,192);" y1="936" y2="936" x1="80" x2="270" />
 <line transform="translate(-13,-4)" style="stroke:rgb(255,0,0);stroke-width:0.9;fill:rgb(255,255,192);" y1="944" y2="944" x1="80" x2="270" />
 <text x="85" y="959" transform="translate(-13,-4)" style="fill:rgb(0,0,0);stroke-width:0;font-size:9;font-style:normal;font-weight:400;font-family:Sans Serif;" >+ init(fileName : string) : bool</text>
 <text x="85" y="976" transform="translate(-13,-4)" style="fill:rgb(0,0,0);stroke-width:0;font-size:9;font-style:normal;font-weight:400;font-family:Sans Serif;" >+ play() : bool</text>
 <text x="85" y="993" transform="translate(-13,-4)" style="fill:rgb(0,0,0);stroke-width:0;font-size:9;font-style:normal;font-weight:400;font-family:Sans Serif;" >+ getSeek() : unsigned long</text>
 <text x="85" y="1010" transform="translate(-13,-4)" style="fill:rgb(0,0,0);stroke-width:0;font-size:9;font-style:normal;font-weight:400;font-family:Sans Serif;" >+ setSeek(val : double) : bool</text>
 <text x="85" y="1027" transform="translate(-13,-4)" style="fill:rgb(0,0,0);stroke-width:0;font-size:9;font-style:normal;font-weight:400;font-family:Sans Serif;" >+ flush() : bool</text>
 <text x="85" y="1044" transform="translate(-13,-4)" style="fill:rgb(0,0,0);stroke-width:0;font-size:9;font-style:normal;font-weight:400;font-family:Sans Serif;" >+ finish() : bool</text>
 <rect width="154" x="341" y="684" height="127" transform="translate(-13,-4)" style="stroke:rgb(255,0,0);stroke-width:0.9;fill:rgb(255,255,192);" />
 <text x="418" y="699" transform="translate(-13,-4)" style="fill:rgb(0,0,0);stroke-width:0;font-size:9;font-style:normal;font-weight:700;font-family:Sans Serif;" text-anchor="middle" >WAV</text>
 <line transform="translate(-13,-4)" style="stroke:rgb(255,0,0);stroke-width:0.9;fill:rgb(255,255,192);" y1="701" y2="701" x1="341" x2="494" />
 <line transform="translate(-13,-4)" style="stroke:rgb(255,0,0);stroke-width:0.9;fill:rgb(255,255,192);" y1="709" y2="709" x1="341" x2="494" />
 <text x="346" y="724" transform="translate(-13,-4)" style="fill:rgb(0,0,0);stroke-width:0;font-size:9;font-style:normal;font-weight:400;font-family:Sans Serif;" >+ init(fileName : string)</text>
 <text x="346" y="741" transform="translate(-13,-4)" style="fill:rgb(0,0,0);stroke-width:0;font-size:9;font-style:normal;font-weight:400;font-family:Sans Serif;" >+ play()</text>
 <text x="346" y="758" transform="translate(-13,-4)" style="fill:rgb(0,0,0);stroke-width:0;font-size:9;font-style:normal;font-weight:400;font-family:Sans Serif;" >+ getSeek()</text>
 <text x="346" y="775" transform="translate(-13,-4)" style="fill:rgb(0,0,0);stroke-width:0;font-size:9;font-style:normal;font-weight:400;font-family:Sans Serif;" >+ setSeek(val : double)</text>
 <text x="346" y="792" transform="translate(-13,-4)" style="fill:rgb(0,0,0);stroke-width:0;font-size:9;font-style:normal;font-weight:400;font-family:Sans Serif;" >+ flush()</text>
 <text x="346" y="809" transform="translate(-13,-4)" style="fill:rgb(0,0,0);stroke-width:0;font-size:9;font-style:normal;font-weight:400;font-family:Sans Serif;" >+ finish()</text>
 <rect width="154" x="342" y="825" height="127" transform="translate(-13,-4)" style="stroke:rgb(255,0,0);stroke-width:0.9;fill:rgb(255,255,192);" />
 <text x="419" y="840" transform="translate(-13,-4)" style="fill:rgb(0,0,0);stroke-width:0;font-size:9;font-style:normal;font-weight:700;font-family:Sans Serif;" text-anchor="middle" >FLAC</text>
 <line transform="translate(-13,-4)" style="stroke:rgb(255,0,0);stroke-width:0.9;fill:rgb(255,255,192);" y1="842" y2="842" x1="342" x2="495" />
 <line transform="translate(-13,-4)" style="stroke:rgb(255,0,0);stroke-width:0.9;fill:rgb(255,255,192);" y1="850" y2="850" x1="342" x2="495" />
 <text x="347" y="865" transform="translate(-13,-4)" style="fill:rgb(0,0,0);stroke-width:0;font-size:9;font-style:normal;font-weight:400;font-family:Sans Serif;" >+ init(fileName : string)</text>
 <text x="347" y="882" transform="translate(-13,-4)" style="fill:rgb(0,0,0);stroke-width:0;font-size:9;font-style:normal;font-weight:400;font-family:Sans Serif;" >+ play()</text>
 <text x="347" y="899" transform="translate(-13,-4)" style="fill:rgb(0,0,0);stroke-width:0;font-size:9;font-style:normal;font-weight:400;font-family:Sans Serif;" >+ getSeek()</text>
 <text x="347" y="916" transform="translate(-13,-4)" style="fill:rgb(0,0,0);stroke-width:0;font-size:9;font-style:normal;font-weight:400;font-family:Sans Serif;" >+ setSeek(val : double)</text>
 <text x="347" y="933" transform="translate(-13,-4)" style="fill:rgb(0,0,0);stroke-width:0;font-size:9;font-style:normal;font-weight:400;font-family:Sans Serif;" >+ flush()</text>
 <text x="347" y="950" transform="translate(-13,-4)" style="fill:rgb(0,0,0);stroke-width:0;font-size:9;font-style:normal;font-weight:400;font-family:Sans Serif;" >+ finish()</text>
 <rect width="154" x="343" y="966" height="127" transform="translate(-13,-4)" style="stroke:rgb(255,0,0);stroke-width:0.9;fill:rgb(255,255,192);" />
 <text x="420" y="981" transform="translate(-13,-4)" style="fill:rgb(0,0,0);stroke-width:0;font-size:9;font-style:normal;font-weight:700;font-family:Sans Serif;" text-anchor="middle" >Vorbis</text>
 <line transform="translate(-13,-4)" style="stroke:rgb(255,0,0);stroke-width:0.9;fill:rgb(255,255,192);" y1="983" y2="983" x1="343" x2="496" />
 <line transform="translate(-13,-4)" style="stroke:rgb(255,0,0);stroke-width:0.9;fill:rgb(255,255,192);" y1="991" y2="991" x1="343" x2="496" />
 <text x="348" y="1006" transform="translate(-13,-4)" style="fill:rgb(0,0,0);stroke-width:0;font-size:9;font-style:normal;font-weight:400;font-family:Sans Serif;" >+ init(fileName : string)</text>
 <text x="348" y="1023" transform="translate(-13,-4)" style="fill:rgb(0,0,0);stroke-width:0;font-size:9;font-style:normal;font-weight:400;font-family:Sans Serif;" >+ play()</text>
 <text x="348" y="1040" transform="translate(-13,-4)" style="fill:rgb(0,0,0);stroke-width:0;font-size:9;font-style:normal;font-weight:400;font-family:Sans Serif;" >+ getSeek()</text>
 <text x="348" y="1057" transform="translate(-13,-4)" style="fill:rgb(0,0,0);stroke-width:0;font-size:9;font-style:normal;font-weight:400;font-family:Sans Serif;" >+ setSeek(val : double)</text>
 <text x="348" y="1074" transform="translate(-13,-4)" style="fill:rgb(0,0,0);stroke-width:0;font-size:9;font-style:normal;font-weight:400;font-family:Sans Serif;" >+ flush()</text>
 <text x="348" y="1091" transform="translate(-13,-4)" style="fill:rgb(0,0,0);stroke-width:0;font-size:9;font-style:normal;font-weight:400;font-family:Sans Serif;" >+ finish()</text>
 <rect width="154" x="344" y="1107" height="127" transform="translate(-13,-4)" style="stroke:rgb(255,0,0);stroke-width:0.9;fill:rgb(255,255,192);" />
 <text x="421" y="1122" transform="translate(-13,-4)" style="fill:rgb(0,0,0);stroke-width:0;font-size:9;font-style:normal;font-weight:700;font-family:Sans Serif;" text-anchor="middle" >WavPack</text>
 <line transform="translate(-13,-4)" style="stroke:rgb(255,0,0);stroke-width:0.9;fill:rgb(255,255,192);" y1="1124" y2="1124" x1="344" x2="497" />
 <line transform="translate(-13,-4)" style="stroke:rgb(255,0,0);stroke-width:0.9;fill:rgb(255,255,192);" y1="1132" y2="1132" x1="344" x2="497" />
 <text x="349" y="1147" transform="translate(-13,-4)" style="fill:rgb(0,0,0);stroke-width:0;font-size:9;font-style:normal;font-weight:400;font-family:Sans Serif;" >+ init(fileName : string)</text>
 <text x="349" y="1164" transform="translate(-13,-4)" style="fill:rgb(0,0,0);stroke-width:0;font-size:9;font-style:normal;font-weight:400;font-family:Sans Serif;" >+ play()</text>
 <text x="349" y="1181" transform="translate(-13,-4)" style="fill:rgb(0,0,0);stroke-width:0;font-size:9;font-style:normal;font-weight:400;font-family:Sans Serif;" >+ getSeek()</text>
 <text x="349" y="1198" transform="translate(-13,-4)" style="fill:rgb(0,0,0);stroke-width:0;font-size:9;font-style:normal;font-weight:400;font-family:Sans Serif;" >+ setSeek(val : double)</text>
 <text x="349" y="1215" transform="translate(-13,-4)" style="fill:rgb(0,0,0);stroke-width:0;font-size:9;font-style:normal;font-weight:400;font-family:Sans Serif;" >+ flush()</text>
 <text x="349" y="1232" transform="translate(-13,-4)" style="fill:rgb(0,0,0);stroke-width:0;font-size:9;font-style:normal;font-weight:400;font-family:Sans Serif;" >+ finish()</text>
 <rect width="157" x="66" y="603" height="127" transform="translate(-13,-4)" style="stroke:rgb(255,0,0);stroke-width:0.9;fill:rgb(255,255,192);" />
 <text x="144" y="618" transform="translate(-13,-4)" style="fill:rgb(0,0,0);stroke-width:0;font-size:9;font-style:normal;font-weight:700;font-family:Sans Serif;" text-anchor="middle" >Audio</text>
 <line transform="translate(-13,-4)" style="stroke:rgb(255,0,0);stroke-width:0.9;fill:rgb(255,255,192);" y1="620" y2="620" x1="66" x2="222" />
 <line transform="translate(-13,-4)" style="stroke:rgb(255,0,0);stroke-width:0.9;fill:rgb(255,255,192);" y1="628" y2="628" x1="66" x2="222" />
 <text x="71" y="643" transform="translate(-13,-4)" style="fill:rgb(0,0,0);stroke-width:0;font-size:9;font-style:normal;font-weight:400;font-family:Sans Serif;" >+ Instance() : Audio *</text>
 <text x="71" y="660" transform="translate(-13,-4)" style="fill:rgb(0,0,0);stroke-width:0;font-size:9;font-style:normal;font-weight:400;font-family:Sans Serif;" >+ init() : bool</text>
 <text x="71" y="677" transform="translate(-13,-4)" style="fill:rgb(0,0,0);stroke-width:0;font-size:9;font-style:normal;font-weight:400;font-family:Sans Serif;" >+ openFile() : bool</text>
 <text x="71" y="694" transform="translate(-13,-4)" style="fill:rgb(0,0,0);stroke-width:0;font-size:9;font-style:normal;font-weight:400;font-family:Sans Serif;" >+ changeStatus() : bool</text>
 <text x="71" y="711" transform="translate(-13,-4)" style="fill:rgb(0,0,0);stroke-width:0;font-size:9;font-style:normal;font-weight:400;font-family:Sans Serif;" >+ closeF() : bool</text>
 <text x="71" y="728" transform="translate(-13,-4)" style="fill:rgb(0,0,0);stroke-width:0;font-size:9;font-style:normal;font-weight:400;font-family:Sans Serif;" >+ play() : bool</text>
 <rect width="525" x="13" y="37" height="76" transform="translate(-13,-4)" style="stroke:rgb(255,0,0);stroke-width:0.9;fill:rgb(255,255,192);" />
 <text x="275" y="52" transform="translate(-13,-4)" style="fill:rgb(0,0,0);stroke-width:0;font-size:9;font-style:normal;font-weight:700;font-family:Sans Serif;" text-anchor="middle" >SoundSystemManager</text>
 <line transform="translate(-13,-4)" style="stroke:rgb(255,0,0);stroke-width:0.9;fill:rgb(255,255,192);" y1="54" y2="54" x1="13" x2="537" />
 <line transform="translate(-13,-4)" style="stroke:rgb(255,0,0);stroke-width:0.9;fill:rgb(255,255,192);" y1="62" y2="62" x1="13" x2="537" />
 <text x="18" y="77" transform="translate(-13,-4)" style="fill:rgb(0,0,0);stroke-width:0;font-size:9;font-style:normal;font-weight:400;font-family:Sans Serif;" >+ Instance() : SoundSystemManager *</text>
 <text x="18" y="94" transform="translate(-13,-4)" style="fill:rgb(0,0,0);stroke-width:0;font-size:9;font-style:normal;font-weight:400;font-family:Sans Serif;" >+ init(dev : string) : bool</text>
 <text x="18" y="111" transform="translate(-13,-4)" style="fill:rgb(0,0,0);stroke-width:0;font-size:9;font-style:normal;font-weight:400;font-family:Sans Serif;" >+ setParams(channels : unsigned short int = 2, sampleRate : unsigned int = 44100)</text>
 <rect width="407" x="559" y="4" height="76" transform="translate(-13,-4)" style="stroke:rgb(255,0,0);stroke-width:0.9;fill:rgb(255,255,192);" />
 <text x="762" y="19" transform="translate(-13,-4)" style="fill:rgb(0,0,0);stroke-width:0;font-size:9;font-style:normal;font-weight:700;font-family:Sans Serif;" text-anchor="middle" >DSP</text>
 <line transform="translate(-13,-4)" style="stroke:rgb(255,0,0);stroke-width:0.9;fill:rgb(255,255,192);" y1="21" y2="21" x1="559" x2="965" />
 <line transform="translate(-13,-4)" style="stroke:rgb(255,0,0);stroke-width:0.9;fill:rgb(255,255,192);" y1="29" y2="29" x1="559" x2="965" />
 <text x="564" y="44" transform="translate(-13,-4)" style="fill:rgb(0,0,0);stroke-width:0;font-size:9;font-style:normal;font-weight:400;font-family:Sans Serif;" >+ init(dev : string = /dev/dsp) : bool</text>
 <text x="564" y="61" transform="translate(-13,-4)" style="fill:rgb(0,0,0);stroke-width:0;font-size:9;font-style:normal;font-weight:400;font-family:Sans Serif;" >+ setParams(channels : int = 2, sampleRate : int = 44100) : bool</text>
 <text x="564" y="78" transform="translate(-13,-4)" style="fill:rgb(0,0,0);stroke-width:0;font-size:9;font-style:normal;font-weight:400;font-family:Sans Serif;" >+ play(buf : const void *) : bool</text>
 <rect width="323" x="989" y="27" height="93" transform="translate(-13,-4)" style="stroke:rgb(255,0,0);stroke-width:0.9;fill:rgb(255,255,192);" />
 <text x="1150" y="42" transform="translate(-13,-4)" style="fill:rgb(0,0,0);stroke-width:0;font-size:9;font-style:italic;font-weight:700;font-family:Sans Serif;" text-anchor="middle" >AbstractSoundSystem</text>
 <line transform="translate(-13,-4)" style="stroke:rgb(255,0,0);stroke-width:0.9;fill:rgb(255,255,192);" y1="44" y2="44" x1="989" x2="1311" />
 <line transform="translate(-13,-4)" style="stroke:rgb(255,0,0);stroke-width:0.9;fill:rgb(255,255,192);" y1="52" y2="52" x1="989" x2="1311" />
 <text x="994" y="67" transform="translate(-13,-4)" style="fill:rgb(0,0,0);stroke-width:0;font-size:9;font-style:normal;font-weight:400;font-family:Sans Serif;" >+ Instance() : AbstractSoundSystem *</text>
 <text x="994" y="84" transform="translate(-13,-4)" style="fill:rgb(0,0,0);stroke-width:0;font-size:9;font-style:normal;font-weight:400;font-family:Sans Serif;" >+ init() : bool</text>
 <text x="994" y="101" transform="translate(-13,-4)" style="fill:rgb(0,0,0);stroke-width:0;font-size:9;font-style:normal;font-weight:400;font-family:Sans Serif;" >+ setParams(channels : int, sampleRate : int) : bool</text>
 <text x="994" y="118" transform="translate(-13,-4)" style="fill:rgb(0,0,0);stroke-width:0;font-size:9;font-style:normal;font-weight:400;font-family:Sans Serif;" >+ play(buf : const void *) : bool</text>
 <rect width="1000" x="562" y="827" height="263" transform="translate(-13,-4)" style="stroke:rgb(255,0,0);stroke-width:0.9;fill:rgb(255,255,192);" />
 <text x="1062" y="842" transform="translate(-13,-4)" style="fill:rgb(0,0,0);stroke-width:0;font-size:9;font-style:normal;font-weight:700;font-family:Sans Serif;" text-anchor="middle" >DecodeData</text>
 <line transform="translate(-13,-4)" style="stroke:rgb(255,0,0);stroke-width:0.9;fill:rgb(255,255,192);" y1="844" y2="844" x1="562" x2="1561" />
 <line transform="translate(-13,-4)" style="stroke:rgb(255,0,0);stroke-width:0.9;fill:rgb(255,255,192);" y1="852" y2="852" x1="562" x2="1561" />
 <text x="567" y="867" transform="translate(-13,-4)" style="fill:rgb(0,0,0);stroke-width:0;font-size:9;font-style:normal;font-weight:400;font-family:Sans Serif;" >+ Instance() : DecodedData *</text>
 <text x="567" y="884" transform="translate(-13,-4)" style="fill:rgb(0,0,0);stroke-width:0;font-size:9;font-style:normal;font-weight:400;font-family:Sans Serif;" >+ setMainParam(fileName : string, fileSize : long = -1, totalTime : int = -1, channels : int = -1, sampleRate : int = -1, bitRate : double = -1, bitsPerSample : int = -1)</text>
 <text x="567" y="901" transform="translate(-13,-4)" style="fill:rgb(0,0,0);stroke-width:0;font-size:9;font-style:normal;font-weight:400;font-family:Sans Serif;" >+ play(buf : const void *)</text>
 <text x="567" y="918" transform="translate(-13,-4)" style="fill:rgb(0,0,0);stroke-width:0;font-size:9;font-style:normal;font-weight:400;font-family:Sans Serif;" >+ setVorbisComment(vorbisComm : map &lt; string, string >)</text>
 <text x="567" y="935" transform="translate(-13,-4)" style="fill:rgb(0,0,0);stroke-width:0;font-size:9;font-style:normal;font-weight:400;font-family:Sans Serif;" >+ setPicture(picData : undef)</text>
 <text x="567" y="952" transform="translate(-13,-4)" style="fill:rgb(0,0,0);stroke-width:0;font-size:9;font-style:normal;font-weight:400;font-family:Sans Serif;" >+ clean()</text>
 <text x="567" y="969" transform="translate(-13,-4)" style="fill:rgb(0,0,0);stroke-width:0;font-size:9;font-style:normal;font-weight:400;font-family:Sans Serif;" >+ getVorbisComment() : map &lt; string, string ></text>
 <text x="567" y="986" transform="translate(-13,-4)" style="fill:rgb(0,0,0);stroke-width:0;font-size:9;font-style:normal;font-weight:400;font-family:Sans Serif;" >+ getPicture()</text>
 <text x="567" y="1003" transform="translate(-13,-4)" style="fill:rgb(0,0,0);stroke-width:0;font-size:9;font-style:normal;font-weight:400;font-family:Sans Serif;" >+ getFileSize() : unsigned long</text>
 <text x="567" y="1020" transform="translate(-13,-4)" style="fill:rgb(0,0,0);stroke-width:0;font-size:9;font-style:normal;font-weight:400;font-family:Sans Serif;" >+ getTotalTime() : unsigned int</text>
 <text x="567" y="1037" transform="translate(-13,-4)" style="fill:rgb(0,0,0);stroke-width:0;font-size:9;font-style:normal;font-weight:400;font-family:Sans Serif;" >+ getChannels() : unsigned int</text>
 <text x="567" y="1054" transform="translate(-13,-4)" style="fill:rgb(0,0,0);stroke-width:0;font-size:9;font-style:normal;font-weight:400;font-family:Sans Serif;" >+ getSampleRate() : unsigned int</text>
 <text x="567" y="1071" transform="translate(-13,-4)" style="fill:rgb(0,0,0);stroke-width:0;font-size:9;font-style:normal;font-weight:400;font-family:Sans Serif;" >+ getBitRate() : double</text>
 <text x="567" y="1088" transform="translate(-13,-4)" style="fill:rgb(0,0,0);stroke-width:0;font-size:9;font-style:normal;font-weight:400;font-family:Sans Serif;" >+ getBitsPerSample() : short</text>
</svg>
